<svg width="56" height="56" viewBox="0 0 56 56" fill="none" xmlns="http://www.w3.org/2000/svg">
<path d="M40.5 3H15.5C8.59644 3 3 8.59644 3 15.5V40.5C3 47.4036 8.59644 53 15.5 53H40.5C47.4036 53 53 47.4036 53 40.5V15.5C53 8.59644 47.4036 3 40.5 3Z" stroke="#3340FF" stroke-width="6" stroke-linecap="round" stroke-linejoin="round"/>
<path d="M38.2376 26.1144C38.5434 28.1771 38.1911 30.2837 37.2307 32.1346C36.2703 33.9855 34.7507 35.4864 32.8881 36.4239C31.0255 37.3614 28.9148 37.6877 26.856 37.3565C24.7973 37.0252 22.8954 36.0532 21.4209 34.5787C19.9464 33.1042 18.9744 31.2023 18.6431 29.1436C18.3119 27.0848 18.6382 24.974 19.5757 23.1114C20.5132 21.2488 22.0141 19.7293 23.865 18.7689C25.7159 17.8085 27.8225 17.4562 29.8852 17.762C31.9892 18.074 33.9371 19.0544 35.4411 20.5585C36.9451 22.0625 37.9256 24.0104 38.2376 26.1144Z" stroke="#3340FF" stroke-width="6" stroke-linecap="round" stroke-linejoin="round"/>
</svg>
