<svg width="208" height="25" viewBox="0 0 208 25" fill="none" xmlns="http://www.w3.org/2000/svg">
<path d="M0.05 13.5C0.05 19.77 4.64 24.18 10.67 24.18C15.32 24.18 19.1 21.72 20.51 17.4H15.68C14.69 19.44 12.89 20.43 10.64 20.43C6.98 20.43 4.37 17.73 4.37 13.5C4.37 9.24 6.98 6.57 10.64 6.57C12.89 6.57 14.69 7.56 15.68 9.57H20.51C19.1 5.28 15.32 2.79 10.67 2.79C4.64 2.79 0.05 7.23 0.05 13.5ZM24.0973 24H28.2973V14.82C28.2973 12.15 29.7673 10.71 32.0473 10.71C34.2673 10.71 35.7373 12.15 35.7373 14.82V24H39.9373V14.25C39.9373 9.66 37.2073 7.14 33.4573 7.14C31.2373 7.14 29.3773 8.04 28.2973 9.45V1.8H24.0973V24ZM48.1313 15.72C48.1313 12.51 49.6313 11.55 52.1213 11.55H53.2313V7.14C50.9213 7.14 49.1813 8.25 48.1313 9.96V7.38H43.9313V24H48.1313V15.72ZM63.2002 10.56C65.3602 10.56 67.1002 11.94 67.1602 14.13H59.2702C59.6002 11.85 61.1902 10.56 63.2002 10.56ZM71.0902 18.78H66.5602C66.0202 19.89 65.0302 20.79 63.2302 20.79C61.1302 20.79 59.4502 19.41 59.2402 16.95H71.3902C71.4802 16.41 71.5102 15.87 71.5102 15.33C71.5102 10.38 68.1202 7.11 63.3202 7.11C58.4002 7.11 54.9802 10.44 54.9802 15.69C54.9802 20.91 58.4902 24.27 63.3202 24.27C67.4302 24.27 70.1902 21.84 71.0902 18.78ZM87.4759 19.26C87.3559 13.17 78.1459 15.06 78.1459 12.03C78.1459 11.07 78.9559 10.44 80.5159 10.44C82.1659 10.44 83.1859 11.31 83.3059 12.6H87.3259C87.0859 9.3 84.6559 7.11 80.6359 7.11C76.5259 7.11 74.0659 9.33 74.0659 12.09C74.0659 18.18 83.4559 16.29 83.4559 19.26C83.4559 20.22 82.5559 20.97 80.9059 20.97C79.2259 20.97 78.0559 20.01 77.9059 18.75H73.6759C73.8559 21.84 76.7659 24.27 80.9359 24.27C84.9859 24.27 87.4759 22.11 87.4759 19.26Z" fill="black"/>
<path d="M89.9035 13.5C89.9035 19.77 94.4935 24.18 100.524 24.18C105.174 24.18 108.954 21.72 110.364 17.4H105.534C104.544 19.44 102.744 20.43 100.494 20.43C96.8335 20.43 94.2235 17.73 94.2235 13.5C94.2235 9.24 96.8335 6.57 100.494 6.57C102.744 6.57 104.544 7.56 105.534 9.57H110.364C108.954 5.28 105.174 2.79 100.524 2.79C94.4935 2.79 89.9035 7.23 89.9035 13.5ZM113.951 24H118.151V14.82C118.151 12.15 119.621 10.71 121.901 10.71C124.121 10.71 125.591 12.15 125.591 14.82V24H129.791V14.25C129.791 9.66 127.061 7.14 123.311 7.14C121.091 7.14 119.231 8.04 118.151 9.45V1.8H113.951V24ZM132.705 15.63C132.705 20.82 136.065 24.27 140.265 24.27C142.905 24.27 144.795 23.01 145.785 21.57V24H150.015V7.38H145.785V9.75C144.795 8.37 142.965 7.11 140.295 7.11C136.065 7.11 132.705 10.44 132.705 15.63ZM145.785 15.69C145.785 18.84 143.685 20.58 141.375 20.58C139.125 20.58 136.995 18.78 136.995 15.63C136.995 12.48 139.125 10.8 141.375 10.8C143.685 10.8 145.785 12.54 145.785 15.69ZM158.317 15.72C158.317 12.51 159.817 11.55 162.307 11.55H163.417V7.14C161.107 7.14 159.367 8.25 158.317 9.96V7.38H154.117V24H158.317V15.72ZM166.246 24H170.446V1.8H166.246V24ZM174.595 24H178.795V7.38H174.595V24ZM176.725 5.4C178.195 5.4 179.305 4.32 179.305 2.94C179.305 1.56 178.195 0.479999 176.725 0.479999C175.225 0.479999 174.145 1.56 174.145 2.94C174.145 4.32 175.225 5.4 176.725 5.4ZM182.945 24H187.145V1.8H182.945V24ZM207.345 15.69C207.345 10.44 203.595 7.11 198.795 7.11C193.995 7.11 190.245 10.44 190.245 15.69C190.245 20.91 193.875 24.27 198.675 24.27C203.505 24.27 207.345 20.91 207.345 15.69ZM194.505 15.69C194.505 12.36 196.515 10.77 198.735 10.77C200.955 10.77 203.025 12.36 203.025 15.69C203.025 18.99 200.895 20.61 198.675 20.61C196.425 20.61 194.505 18.99 194.505 15.69Z" fill="#3340FF"/>
</svg>
